<?xml version="1.0" encoding="utf-8"?>
<svg version="1.1" id="图层_1" xmlns="http://www.w3.org/2000/svg" xmlns:xlink="http://www.w3.org/1999/xlink" x="0px" y="0px"
	 viewBox="-233 356.9 128.3 128" style="enable-background:new -233 356.9 128.3 128;" xml:space="preserve">
<style type="text/css">
	.st0{fill:#7F3F98;}
</style>
<path class="st0" d="M-144.8,424.1c-2,0-3.8,0.8-5.2,1.9l-19.6-11.1c0.4-1.4,0.6-2.8,0.6-4.2c0-1.2-0.1-2.3-0.5-3.5l13.7-6.8
	c1.4,1.4,3.5,2.3,5.6,2.3c4.5,0,8.1-3.6,8.1-8.1c0-4.5-3.6-8.1-8.1-8.1s-8.1,3.6-8.1,8.1v1l-13.7,6.8c-2.4-3.1-6.3-5.1-10.6-5.1
	c-7.4,0-13.4,6-13.4,13.4c0,5.8,3.6,10.6,8.6,12.5l-1.8,11.6c-3.8,0.6-6.7,4-6.7,7.9c0,4.5,3.6,8.1,8.1,8.1s8.1-3.6,8.1-8.1
	c0-3.1-1.7-5.6-4.2-7l1.9-11.8c3.8-0.1,7.3-1.9,9.6-4.6l19.6,11.1c-0.1,0.5-0.1,0.9-0.1,1.4c0,4.5,3.6,8.1,8.1,8.1
	c4.5,0,8.1-3.6,8.1-8.1C-136.7,427.8-140.5,424.1-144.8,424.1z"/>
<path class="st0" d="M-136.9,364.7H-201l-32,55.6l32.1,55.6h64l32.1-55.6L-136.9,364.7z M-142.8,465.6h-52.4l-26.1-45.3l26.1-45.3
	h52.4l26.1,45.3C-116.6,420.3-142.8,465.6-142.8,465.6z"/>
</svg>
