<svg xmlns="http://www.w3.org/2000/svg" viewBox="-459 261 40 40"><path d="M-444.4 290.5l-3.6-3.6s-1.1 1.4-3.8.8l-3.4 9.5c-.1.3.2.6.5.5l9.5-3.4c-.6-2.7.8-3.8.8-3.8z" fill="#f7c67f" stroke="#575e75" stroke-miterlimit="10"/><path d="M-441.9 290.4l19.5-22.1s1.3-1.6-.2-3.1c-1.6-1.5-3.1-.2-3.1-.2l-22.1 19.5-.2 2.5 1.8 1.8 1.8 1.8 2.5-.2z" fill="#f46d38" stroke="#575e75" stroke-miterlimit="10"/><path fill="none" stroke="#575e75" stroke-linecap="round" stroke-miterlimit="10" d="M-455.1 297.6l3.8-3.8"/><path fill="#95d8d6" stroke="#575e75" stroke-linecap="round" stroke-miterlimit="10" d="M-446.5 283.1l5.8 5.8 2.9-3.2-5.4-5.4z"/><path fill="#fff" stroke="#575e75" stroke-miterlimit="10" d="M-443.6 286l-2.9-2.9-1.3 1.2-.3 2.6 3.7 3.6 2.5-.1 1.2-1.5z"/><path d="M-444.8 290.2l2.6-.2 19.4-22s.8-1.1.1-2.1l-30.9 30.8 7.8-2.7c-.4-2.2.6-3.5 1-3.8z" opacity=".2" fill="#353535"/></svg>